<mxfile host="app.diagrams.net" modified="2024-02-28T18:11:59.067Z" agent="Mozilla/5.0 (Windows NT 10.0; Win64; x64) AppleWebKit/537.36 (KHTML, like Gecko) Chrome/121.0.0.0 Safari/537.36 OPR/107.0.0.0" etag="BtdO21jErPStOB4P1Z94" version="23.1.2" type="device">
  <diagram name="Page-1" id="6tDc1obZtQazhql7PHfP">
    <mxGraphModel dx="2655" dy="1942" grid="1" gridSize="10" guides="1" tooltips="1" connect="1" arrows="1" fold="1" page="1" pageScale="1" pageWidth="850" pageHeight="1100" math="0" shadow="0">
      <root>
        <mxCell id="0" />
        <mxCell id="1" parent="0" />
        <mxCell id="gmlMHJXvSx_3rkqsfn-A-6" style="edgeStyle=orthogonalEdgeStyle;rounded=0;orthogonalLoop=1;jettySize=auto;html=1;entryX=0;entryY=0.5;entryDx=0;entryDy=0;" edge="1" parent="1" source="gmlMHJXvSx_3rkqsfn-A-1" target="gmlMHJXvSx_3rkqsfn-A-5">
          <mxGeometry relative="1" as="geometry" />
        </mxCell>
        <mxCell id="gmlMHJXvSx_3rkqsfn-A-7" style="edgeStyle=orthogonalEdgeStyle;rounded=0;orthogonalLoop=1;jettySize=auto;html=1;" edge="1" parent="1" source="gmlMHJXvSx_3rkqsfn-A-1" target="gmlMHJXvSx_3rkqsfn-A-4">
          <mxGeometry relative="1" as="geometry" />
        </mxCell>
        <mxCell id="gmlMHJXvSx_3rkqsfn-A-9" style="edgeStyle=orthogonalEdgeStyle;rounded=0;orthogonalLoop=1;jettySize=auto;html=1;" edge="1" parent="1" source="gmlMHJXvSx_3rkqsfn-A-1">
          <mxGeometry relative="1" as="geometry">
            <mxPoint x="-20" y="195" as="targetPoint" />
          </mxGeometry>
        </mxCell>
        <mxCell id="gmlMHJXvSx_3rkqsfn-A-1" value="Profesores" style="rounded=0;whiteSpace=wrap;html=1;" vertex="1" parent="1">
          <mxGeometry x="40" y="180" width="160" height="30" as="geometry" />
        </mxCell>
        <mxCell id="gmlMHJXvSx_3rkqsfn-A-2" value="&lt;u&gt;id_profesores&lt;/u&gt;" style="ellipse;whiteSpace=wrap;html=1;" vertex="1" parent="1">
          <mxGeometry x="-140" y="170" width="120" height="50" as="geometry" />
        </mxCell>
        <mxCell id="gmlMHJXvSx_3rkqsfn-A-3" value="nombre" style="ellipse;whiteSpace=wrap;html=1;" vertex="1" parent="1">
          <mxGeometry x="20" y="260" width="120" height="50" as="geometry" />
        </mxCell>
        <mxCell id="gmlMHJXvSx_3rkqsfn-A-4" value="apellido" style="ellipse;whiteSpace=wrap;html=1;" vertex="1" parent="1">
          <mxGeometry x="170" y="260" width="120" height="50" as="geometry" />
        </mxCell>
        <mxCell id="gmlMHJXvSx_3rkqsfn-A-5" value="correo_electronico" style="ellipse;whiteSpace=wrap;html=1;" vertex="1" parent="1">
          <mxGeometry x="260" y="180" width="120" height="50" as="geometry" />
        </mxCell>
        <mxCell id="gmlMHJXvSx_3rkqsfn-A-8" style="edgeStyle=orthogonalEdgeStyle;rounded=0;orthogonalLoop=1;jettySize=auto;html=1;entryX=0.411;entryY=0.013;entryDx=0;entryDy=0;entryPerimeter=0;" edge="1" parent="1" source="gmlMHJXvSx_3rkqsfn-A-1" target="gmlMHJXvSx_3rkqsfn-A-3">
          <mxGeometry relative="1" as="geometry" />
        </mxCell>
        <mxCell id="gmlMHJXvSx_3rkqsfn-A-10" value="1" style="text;html=1;strokeColor=none;fillColor=none;align=center;verticalAlign=middle;whiteSpace=wrap;rounded=0;" vertex="1" parent="1">
          <mxGeometry x="60" y="140" width="60" height="30" as="geometry" />
        </mxCell>
        <mxCell id="gmlMHJXvSx_3rkqsfn-A-14" style="edgeStyle=orthogonalEdgeStyle;rounded=0;orthogonalLoop=1;jettySize=auto;html=1;" edge="1" parent="1" source="gmlMHJXvSx_3rkqsfn-A-11">
          <mxGeometry relative="1" as="geometry">
            <mxPoint x="120" y="-40" as="targetPoint" />
          </mxGeometry>
        </mxCell>
        <mxCell id="gmlMHJXvSx_3rkqsfn-A-11" value="Tienen" style="rhombus;whiteSpace=wrap;html=1;" vertex="1" parent="1">
          <mxGeometry x="80" y="50" width="80" height="80" as="geometry" />
        </mxCell>
        <mxCell id="gmlMHJXvSx_3rkqsfn-A-12" value="" style="endArrow=none;html=1;rounded=0;exitX=0.5;exitY=0;exitDx=0;exitDy=0;entryX=0.5;entryY=1;entryDx=0;entryDy=0;" edge="1" parent="1" source="gmlMHJXvSx_3rkqsfn-A-1" target="gmlMHJXvSx_3rkqsfn-A-11">
          <mxGeometry width="50" height="50" relative="1" as="geometry">
            <mxPoint x="200" y="195" as="sourcePoint" />
            <mxPoint x="250" y="195" as="targetPoint" />
          </mxGeometry>
        </mxCell>
        <mxCell id="gmlMHJXvSx_3rkqsfn-A-13" value="N" style="text;html=1;strokeColor=none;fillColor=none;align=center;verticalAlign=middle;whiteSpace=wrap;rounded=0;" vertex="1" parent="1">
          <mxGeometry x="80" y="-40" width="60" height="30" as="geometry" />
        </mxCell>
        <mxCell id="gmlMHJXvSx_3rkqsfn-A-22" style="edgeStyle=orthogonalEdgeStyle;rounded=0;orthogonalLoop=1;jettySize=auto;html=1;entryX=0;entryY=0.5;entryDx=0;entryDy=0;" edge="1" parent="1" source="gmlMHJXvSx_3rkqsfn-A-15" target="gmlMHJXvSx_3rkqsfn-A-16">
          <mxGeometry relative="1" as="geometry" />
        </mxCell>
        <mxCell id="gmlMHJXvSx_3rkqsfn-A-23" style="edgeStyle=orthogonalEdgeStyle;rounded=0;orthogonalLoop=1;jettySize=auto;html=1;entryX=0;entryY=0.5;entryDx=0;entryDy=0;" edge="1" parent="1" source="gmlMHJXvSx_3rkqsfn-A-15" target="gmlMHJXvSx_3rkqsfn-A-18">
          <mxGeometry relative="1" as="geometry" />
        </mxCell>
        <mxCell id="gmlMHJXvSx_3rkqsfn-A-24" style="edgeStyle=orthogonalEdgeStyle;rounded=0;orthogonalLoop=1;jettySize=auto;html=1;entryX=0;entryY=0.5;entryDx=0;entryDy=0;" edge="1" parent="1" source="gmlMHJXvSx_3rkqsfn-A-15" target="gmlMHJXvSx_3rkqsfn-A-17">
          <mxGeometry relative="1" as="geometry" />
        </mxCell>
        <mxCell id="gmlMHJXvSx_3rkqsfn-A-25" style="edgeStyle=orthogonalEdgeStyle;rounded=0;orthogonalLoop=1;jettySize=auto;html=1;entryX=0;entryY=0.5;entryDx=0;entryDy=0;" edge="1" parent="1" source="gmlMHJXvSx_3rkqsfn-A-15" target="gmlMHJXvSx_3rkqsfn-A-19">
          <mxGeometry relative="1" as="geometry" />
        </mxCell>
        <mxCell id="gmlMHJXvSx_3rkqsfn-A-39" style="edgeStyle=orthogonalEdgeStyle;rounded=0;orthogonalLoop=1;jettySize=auto;html=1;entryX=0.5;entryY=1;entryDx=0;entryDy=0;" edge="1" parent="1" source="gmlMHJXvSx_3rkqsfn-A-15" target="gmlMHJXvSx_3rkqsfn-A-38">
          <mxGeometry relative="1" as="geometry" />
        </mxCell>
        <mxCell id="gmlMHJXvSx_3rkqsfn-A-15" value="materias" style="rounded=0;whiteSpace=wrap;html=1;" vertex="1" parent="1">
          <mxGeometry x="50" y="-70" width="160" height="30" as="geometry" />
        </mxCell>
        <mxCell id="gmlMHJXvSx_3rkqsfn-A-16" value="&lt;u&gt;id_materia&lt;/u&gt;" style="ellipse;whiteSpace=wrap;html=1;" vertex="1" parent="1">
          <mxGeometry x="280" y="-230" width="120" height="50" as="geometry" />
        </mxCell>
        <mxCell id="gmlMHJXvSx_3rkqsfn-A-17" value="nombre_materia" style="ellipse;whiteSpace=wrap;html=1;" vertex="1" parent="1">
          <mxGeometry x="280" y="-80" width="120" height="50" as="geometry" />
        </mxCell>
        <mxCell id="gmlMHJXvSx_3rkqsfn-A-18" value="grupo_materia" style="ellipse;whiteSpace=wrap;html=1;" vertex="1" parent="1">
          <mxGeometry x="280" y="-160" width="120" height="50" as="geometry" />
        </mxCell>
        <mxCell id="gmlMHJXvSx_3rkqsfn-A-19" value="cupos" style="ellipse;whiteSpace=wrap;html=1;" vertex="1" parent="1">
          <mxGeometry x="280" y="-10" width="120" height="50" as="geometry" />
        </mxCell>
        <mxCell id="gmlMHJXvSx_3rkqsfn-A-30" value="fecha_inspo" style="ellipse;whiteSpace=wrap;html=1;" vertex="1" parent="1">
          <mxGeometry x="-150" y="-150" width="120" height="50" as="geometry" />
        </mxCell>
        <mxCell id="gmlMHJXvSx_3rkqsfn-A-31" value="estado" style="ellipse;whiteSpace=wrap;html=1;" vertex="1" parent="1">
          <mxGeometry x="-150" y="-220" width="120" height="50" as="geometry" />
        </mxCell>
        <mxCell id="gmlMHJXvSx_3rkqsfn-A-32" value="&lt;u&gt;id_inscripcion&lt;/u&gt;" style="ellipse;whiteSpace=wrap;html=1;" vertex="1" parent="1">
          <mxGeometry x="-150" y="-290" width="120" height="50" as="geometry" />
        </mxCell>
        <mxCell id="gmlMHJXvSx_3rkqsfn-A-36" value="N" style="text;html=1;strokeColor=none;fillColor=none;align=center;verticalAlign=middle;whiteSpace=wrap;rounded=0;" vertex="1" parent="1">
          <mxGeometry x="55" y="-310" width="60" height="30" as="geometry" />
        </mxCell>
        <mxCell id="gmlMHJXvSx_3rkqsfn-A-57" style="edgeStyle=orthogonalEdgeStyle;rounded=0;orthogonalLoop=1;jettySize=auto;html=1;entryX=0;entryY=0.5;entryDx=0;entryDy=0;" edge="1" parent="1" source="gmlMHJXvSx_3rkqsfn-A-37" target="gmlMHJXvSx_3rkqsfn-A-55">
          <mxGeometry relative="1" as="geometry" />
        </mxCell>
        <mxCell id="gmlMHJXvSx_3rkqsfn-A-58" style="edgeStyle=orthogonalEdgeStyle;rounded=0;orthogonalLoop=1;jettySize=auto;html=1;entryX=0;entryY=0.5;entryDx=0;entryDy=0;" edge="1" parent="1" source="gmlMHJXvSx_3rkqsfn-A-37" target="gmlMHJXvSx_3rkqsfn-A-51">
          <mxGeometry relative="1" as="geometry" />
        </mxCell>
        <mxCell id="gmlMHJXvSx_3rkqsfn-A-59" style="edgeStyle=orthogonalEdgeStyle;rounded=0;orthogonalLoop=1;jettySize=auto;html=1;entryX=0;entryY=0.5;entryDx=0;entryDy=0;" edge="1" parent="1" source="gmlMHJXvSx_3rkqsfn-A-37" target="gmlMHJXvSx_3rkqsfn-A-52">
          <mxGeometry relative="1" as="geometry" />
        </mxCell>
        <mxCell id="gmlMHJXvSx_3rkqsfn-A-60" style="edgeStyle=orthogonalEdgeStyle;rounded=0;orthogonalLoop=1;jettySize=auto;html=1;entryX=0;entryY=0.5;entryDx=0;entryDy=0;" edge="1" parent="1" source="gmlMHJXvSx_3rkqsfn-A-37" target="gmlMHJXvSx_3rkqsfn-A-53">
          <mxGeometry relative="1" as="geometry" />
        </mxCell>
        <mxCell id="gmlMHJXvSx_3rkqsfn-A-61" style="edgeStyle=orthogonalEdgeStyle;rounded=0;orthogonalLoop=1;jettySize=auto;html=1;entryX=0;entryY=0.5;entryDx=0;entryDy=0;" edge="1" parent="1" source="gmlMHJXvSx_3rkqsfn-A-37" target="gmlMHJXvSx_3rkqsfn-A-54">
          <mxGeometry relative="1" as="geometry" />
        </mxCell>
        <mxCell id="gmlMHJXvSx_3rkqsfn-A-64" style="edgeStyle=orthogonalEdgeStyle;rounded=0;orthogonalLoop=1;jettySize=auto;html=1;" edge="1" parent="1" source="gmlMHJXvSx_3rkqsfn-A-37" target="gmlMHJXvSx_3rkqsfn-A-63">
          <mxGeometry relative="1" as="geometry" />
        </mxCell>
        <mxCell id="gmlMHJXvSx_3rkqsfn-A-37" value="alumnos&lt;span style=&quot;white-space: pre;&quot;&gt;&#x9;&lt;/span&gt;" style="rounded=0;whiteSpace=wrap;html=1;" vertex="1" parent="1">
          <mxGeometry x="55" y="-340" width="160" height="30" as="geometry" />
        </mxCell>
        <mxCell id="gmlMHJXvSx_3rkqsfn-A-46" style="edgeStyle=orthogonalEdgeStyle;rounded=0;orthogonalLoop=1;jettySize=auto;html=1;" edge="1" parent="1" source="gmlMHJXvSx_3rkqsfn-A-38" target="gmlMHJXvSx_3rkqsfn-A-37">
          <mxGeometry relative="1" as="geometry" />
        </mxCell>
        <mxCell id="gmlMHJXvSx_3rkqsfn-A-47" style="edgeStyle=orthogonalEdgeStyle;rounded=0;orthogonalLoop=1;jettySize=auto;html=1;" edge="1" parent="1" source="gmlMHJXvSx_3rkqsfn-A-38" target="gmlMHJXvSx_3rkqsfn-A-30">
          <mxGeometry relative="1" as="geometry" />
        </mxCell>
        <mxCell id="gmlMHJXvSx_3rkqsfn-A-48" style="edgeStyle=orthogonalEdgeStyle;rounded=0;orthogonalLoop=1;jettySize=auto;html=1;entryX=1;entryY=0.5;entryDx=0;entryDy=0;" edge="1" parent="1" source="gmlMHJXvSx_3rkqsfn-A-38" target="gmlMHJXvSx_3rkqsfn-A-31">
          <mxGeometry relative="1" as="geometry" />
        </mxCell>
        <mxCell id="gmlMHJXvSx_3rkqsfn-A-49" style="edgeStyle=orthogonalEdgeStyle;rounded=0;orthogonalLoop=1;jettySize=auto;html=1;entryX=1;entryY=0.5;entryDx=0;entryDy=0;" edge="1" parent="1" source="gmlMHJXvSx_3rkqsfn-A-38" target="gmlMHJXvSx_3rkqsfn-A-32">
          <mxGeometry relative="1" as="geometry" />
        </mxCell>
        <mxCell id="gmlMHJXvSx_3rkqsfn-A-38" value="Se inscriben en" style="rhombus;whiteSpace=wrap;html=1;" vertex="1" parent="1">
          <mxGeometry x="55" y="-230" width="130" height="100" as="geometry" />
        </mxCell>
        <mxCell id="gmlMHJXvSx_3rkqsfn-A-50" value="N" style="text;html=1;strokeColor=none;fillColor=none;align=center;verticalAlign=middle;whiteSpace=wrap;rounded=0;" vertex="1" parent="1">
          <mxGeometry x="70" y="-110" width="60" height="30" as="geometry" />
        </mxCell>
        <mxCell id="gmlMHJXvSx_3rkqsfn-A-51" value="carnet_alumno" style="ellipse;whiteSpace=wrap;html=1;" vertex="1" parent="1">
          <mxGeometry x="190" y="-665" width="120" height="50" as="geometry" />
        </mxCell>
        <mxCell id="gmlMHJXvSx_3rkqsfn-A-52" value="nombre_alumno" style="ellipse;whiteSpace=wrap;html=1;" vertex="1" parent="1">
          <mxGeometry x="200" y="-610" width="120" height="50" as="geometry" />
        </mxCell>
        <mxCell id="gmlMHJXvSx_3rkqsfn-A-53" value="apellido_alumno" style="ellipse;whiteSpace=wrap;html=1;" vertex="1" parent="1">
          <mxGeometry x="200" y="-550" width="120" height="50" as="geometry" />
        </mxCell>
        <mxCell id="gmlMHJXvSx_3rkqsfn-A-54" value="edad_alumno" style="ellipse;whiteSpace=wrap;html=1;" vertex="1" parent="1">
          <mxGeometry x="200" y="-480" width="120" height="50" as="geometry" />
        </mxCell>
        <mxCell id="gmlMHJXvSx_3rkqsfn-A-55" value="&lt;u&gt;id_alumno&lt;/u&gt;" style="ellipse;whiteSpace=wrap;html=1;" vertex="1" parent="1">
          <mxGeometry x="190" y="-740" width="120" height="50" as="geometry" />
        </mxCell>
        <mxCell id="gmlMHJXvSx_3rkqsfn-A-62" value="1" style="text;html=1;strokeColor=none;fillColor=none;align=center;verticalAlign=middle;whiteSpace=wrap;rounded=0;" vertex="1" parent="1">
          <mxGeometry x="215" y="-365" width="60" height="30" as="geometry" />
        </mxCell>
        <mxCell id="gmlMHJXvSx_3rkqsfn-A-66" style="edgeStyle=orthogonalEdgeStyle;rounded=0;orthogonalLoop=1;jettySize=auto;html=1;" edge="1" parent="1" source="gmlMHJXvSx_3rkqsfn-A-63">
          <mxGeometry relative="1" as="geometry">
            <mxPoint x="540" y="-325" as="targetPoint" />
          </mxGeometry>
        </mxCell>
        <mxCell id="gmlMHJXvSx_3rkqsfn-A-63" value="Tienen" style="rhombus;whiteSpace=wrap;html=1;" vertex="1" parent="1">
          <mxGeometry x="310" y="-365" width="80" height="80" as="geometry" />
        </mxCell>
        <mxCell id="gmlMHJXvSx_3rkqsfn-A-65" value="N" style="text;html=1;strokeColor=none;fillColor=none;align=center;verticalAlign=middle;whiteSpace=wrap;rounded=0;" vertex="1" parent="1">
          <mxGeometry x="480" y="-360" width="60" height="30" as="geometry" />
        </mxCell>
        <mxCell id="gmlMHJXvSx_3rkqsfn-A-72" style="edgeStyle=orthogonalEdgeStyle;rounded=0;orthogonalLoop=1;jettySize=auto;html=1;entryX=0;entryY=0.5;entryDx=0;entryDy=0;" edge="1" parent="1" source="gmlMHJXvSx_3rkqsfn-A-68" target="gmlMHJXvSx_3rkqsfn-A-69">
          <mxGeometry relative="1" as="geometry" />
        </mxCell>
        <mxCell id="gmlMHJXvSx_3rkqsfn-A-73" style="edgeStyle=orthogonalEdgeStyle;rounded=0;orthogonalLoop=1;jettySize=auto;html=1;entryX=0;entryY=0.5;entryDx=0;entryDy=0;" edge="1" parent="1" source="gmlMHJXvSx_3rkqsfn-A-68" target="gmlMHJXvSx_3rkqsfn-A-70">
          <mxGeometry relative="1" as="geometry" />
        </mxCell>
        <mxCell id="gmlMHJXvSx_3rkqsfn-A-68" value="calificaciones" style="rounded=0;whiteSpace=wrap;html=1;" vertex="1" parent="1">
          <mxGeometry x="530" y="-340" width="160" height="30" as="geometry" />
        </mxCell>
        <mxCell id="gmlMHJXvSx_3rkqsfn-A-69" value="&lt;u&gt;id_calificacion&lt;/u&gt;" style="ellipse;whiteSpace=wrap;html=1;" vertex="1" parent="1">
          <mxGeometry x="670" y="-287.5" width="120" height="50" as="geometry" />
        </mxCell>
        <mxCell id="gmlMHJXvSx_3rkqsfn-A-70" value="calificacion _final" style="ellipse;whiteSpace=wrap;html=1;" vertex="1" parent="1">
          <mxGeometry x="680" y="-207.5" width="120" height="50" as="geometry" />
        </mxCell>
        <mxCell id="gmlMHJXvSx_3rkqsfn-A-71" value="fecha_calificacion" style="ellipse;whiteSpace=wrap;html=1;" vertex="1" parent="1">
          <mxGeometry x="680" y="-122.5" width="120" height="50" as="geometry" />
        </mxCell>
        <mxCell id="gmlMHJXvSx_3rkqsfn-A-74" style="edgeStyle=orthogonalEdgeStyle;rounded=0;orthogonalLoop=1;jettySize=auto;html=1;entryX=-0.002;entryY=0.741;entryDx=0;entryDy=0;entryPerimeter=0;" edge="1" parent="1" source="gmlMHJXvSx_3rkqsfn-A-68" target="gmlMHJXvSx_3rkqsfn-A-71">
          <mxGeometry relative="1" as="geometry" />
        </mxCell>
      </root>
    </mxGraphModel>
  </diagram>
</mxfile>
